<svg display="block" role="presentation" viewBox="0 0 16 16" xmlns="http://www.w3.org/2000/svg"><path d="M 3.795 8.946 C 3.306 6.774 2.049 6.018 0 6.663 C 0.489 8.835 1.746 9.591 3.795 8.946 Z M 2.915 6.726 C 3.586 4.756 2.799 3.548 0.539 3.079 C -0.132 5.048 0.655 6.256 2.915 6.726 Z M 3.507 0 C 1.514 1.101 1.233 2.443 2.661 4.053 C 4.654 2.953 4.935 1.611 3.508 0.001 Z M 10.205 8.946 C 10.694 6.774 11.951 6.018 14 6.663 C 13.511 8.835 12.255 9.591 10.205 8.946 Z M 11.085 6.726 C 10.414 4.756 11.201 3.548 13.462 3.079 C 14.133 5.048 13.346 6.256 11.086 6.726 Z M 10.493 0 C 12.486 1.101 12.767 2.443 11.339 4.053 C 9.346 2.952 9.065 1.61 10.492 0.001 Z" fill="transparent" height="9.16866444885266px" id="HFr8BodXJ" stroke-dasharray="" stroke-linecap="round" stroke-linejoin="round" stroke-width="1" stroke="#ffffff" transform="translate(1 1.5)" width="14px"/><path d="M 6.764 1.111 C 8.023 2.17 9.418 2.282 10.679 0.958 C 7.852 -2.009 4.029 2.764 7.328 3.848 M 3.981 1.111 C 2.698 2.17 1.286 2.282 0 0.958 C 2.665 -1.786 6.712 2.256 3.417 3.848" fill="transparent" height="3.8478637925860535px" id="XVHGxchSE" stroke-dasharray="" stroke-linecap="round" stroke-linejoin="round" stroke-width="1" stroke="#ffffff" transform="translate(2.661 10.652)" width="10.679307684271635px"/></svg>
